 0
SECTION
 2
ENTITIES
 0
3DFACE
 8
3dface
 10
2829.696564737282
 20
10005.48510506911
 30
2764.608998546244
 11
2829.696564737282
 21
12005.48510506911
 31
2764.608998546244
 12
1349.9725755823
 22
12005.48510506911
 32
1443.246230758193
 13
2829.696564737282
 23
10005.48510506911
 33
2764.608998546244
 0
3DFACE
 8
3dface
 10
2829.696564737282
 20
12005.48510506911
 30
2764.608998546244
 11
2829.696564737282
 21
10005.48510506911
 31
2764.608998546244
 12
4417.158354033229
 22
12005.48510506911
 32
3954.376923690701
 13
2829.696564737282
 23
12005.48510506911
 33
2764.608998546244
 0
3DFACE
 8
3dface
 10
2829.696564737282
 20
10005.48510506911
 30
2764.608998546244
 11
1349.9725755823
 21
12005.48510506911
 31
1443.246230758193
 12
1349.9725755823
 22
10005.48510506911
 32
1443.246230758193
 13
2829.696564737282
 23
10005.48510506911
 33
2764.608998546244
 0
3DFACE
 8
3dface
 10
4417.158354033229
 20
12005.48510506911
 30
3954.376923690701
 11
2829.696564737282
 21
10005.48510506911
 31
2764.608998546244
 12
4417.158354033229
 22
10005.48510506911
 32
3954.376923690701
 13
4417.158354033229
 23
12005.48510506911
 33
3954.376923690701
 0
3DFACE
 8
3dface
 10
1349.9725755823
 20
10005.48510506911
 30
1443.246230758193
 11
1349.9725755823
 21
12005.48510506911
 31
1443.246230758193
 12
-11.13835508409829
 22
10005.48510506911
 32
0.0
 13
1349.9725755823
 23
10005.48510506911
 33
1443.246230758193
 0
3DFACE
 8
3dface
 10
2829.696564737282
 20
10005.48510506911
 30
2764.608998546244
 11
1349.9725755823
 21
10005.48510506911
 31
1443.246230758193
 12
1349.9725755823
 22
8005.485105069109
 32
1443.246230758193
 13
2829.696564737282
 23
8005.48510506911
 33
2764.608998546244
 0
3DFACE
 8
3dface
 10
4417.158354033229
 20
10005.48510506911
 30
3954.376923690701
 11
2829.696564737282
 21
10005.48510506911
 31
2764.608998546244
 12
2829.696564737282
 22
8005.48510506911
 32
2764.608998546244
 13
4417.158354033229
 23
8005.48510506911
 33
3954.376923690701
 0
3DFACE
 8
3dface
 10
4417.158354033229
 20
12005.48510506911
 30
3954.376923690701
 11
4417.158354033229
 21
10005.48510506911
 31
3954.376923690701
 12
6100.69086420259
 22
10005.48510506911
 32
5003.805785205421
 13
4417.158354033229
 23
12005.48510506911
 33
3954.376923690701
 0
3DFACE
 8
3dface
 10
-11.13835508409829
 20
10005.48510506911
 30
0.0
 11
1349.9725755823
 21
12005.48510506911
 31
1443.246230758193
 12
-11.13835508409829
 22
12005.48510506911
 32
0.0
 13
-11.13835508409829
 23
10005.48510506911
 33
0.0
 0
3DFACE
 8
3dface
 10
1349.9725755823
 20
10005.48510506911
 30
1443.246230758193
 11
-11.13835508409829
 21
10005.48510506911
 31
0.0
 12
-11.13835508409829
 22
8005.485105069109
 32
0.0
 13
1349.9725755823
 23
8005.485105069109
 33
1443.246230758193
 0
3DFACE
 8
3dface
 10
2829.696564737282
 20
8005.48510506911
 30
2764.608998546244
 11
1349.9725755823
 21
8005.485105069109
 31
1443.246230758193
 12
1349.9725755823
 22
6005.485105069109
 32
1443.246230758193
 13
2829.696564737282
 23
6005.48510506911
 33
2764.608998546244
 0
3DFACE
 8
3dface
 10
4417.158354033229
 20
8005.48510506911
 30
3954.376923690701
 11
2829.696564737282
 21
8005.48510506911
 31
2764.608998546244
 12
2829.696564737282
 22
6005.48510506911
 32
2764.608998546244
 13
4417.158354033229
 23
6005.48510506911
 33
3954.376923690701
 0
3DFACE
 8
3dface
 10
4417.158354033229
 20
10005.48510506911
 30
3954.376923690701
 11
4417.158354033229
 21
8005.48510506911
 31
3954.376923690701
 12
6100.69086420259
 22
8005.48510506911
 32
5003.805785205421
 13
6100.69086420259
 23
10005.48510506911
 33
5003.805785205421
 0
3DFACE
 8
3dface
 10
4417.158354033229
 20
12005.48510506911
 30
3954.376923690701
 11
6100.69086420259
 21
10005.48510506911
 31
5003.805785205421
 12
6100.69086420259
 22
12005.48510506911
 32
5003.805785205421
 13
4417.158354033229
 23
12005.48510506911
 33
3954.376923690701
 0
3DFACE
 8
3dface
 10
1349.9725755823
 20
8005.485105069109
 30
1443.246230758193
 11
-11.13835508409829
 21
8005.485105069109
 31
0.0
 12
-11.13835508409829
 22
6005.485105069109
 32
0.0
 13
1349.9725755823
 23
6005.485105069109
 33
1443.246230758193
 0
3DFACE
 8
3dface
 10
2829.696564737282
 20
6005.48510506911
 30
2764.608998546244
 11
1349.9725755823
 21
6005.485105069109
 31
1443.246230758193
 12
1349.9725755823
 22
4005.485105069109
 32
1443.246230758193
 13
2829.696564737282
 23
4005.48510506911
 33
2764.608998546244
 0
3DFACE
 8
3dface
 10
4417.158354033229
 20
6005.48510506911
 30
3954.376923690701
 11
2829.696564737282
 21
6005.48510506911
 31
2764.608998546244
 12
2829.696564737282
 22
4005.485105069109
 32
2764.608998546244
 13
4417.158354033229
 23
4005.48510506911
 33
3954.376923690701
 0
3DFACE
 8
3dface
 10
4417.158354033229
 20
8005.48510506911
 30
3954.376923690701
 11
4417.158354033229
 21
6005.48510506911
 31
3954.376923690701
 12
6100.69086420259
 22
6005.48510506911
 32
5003.805785205421
 13
6100.69086420259
 23
8005.48510506911
 33
5003.805785205421
 0
3DFACE
 8
3dface
 10
6100.69086420259
 20
10005.48510506911
 30
5003.805785205421
 11
6100.69086420259
 21
8005.48510506911
 31
5003.805785205421
 12
7867.92094246897
 22
8005.48510506911
 32
5905.182786602634
 13
7867.92094246897
 23
10005.48510506911
 33
5905.182786602634
 0
3DFACE
 8
3dface
 10
6100.69086420259
 20
12005.48510506911
 30
5003.805785205421
 11
6100.69086420259
 21
10005.48510506911
 31
5003.805785205421
 12
7867.92094246897
 22
12005.48510506911
 32
5905.182786602634
 13
6100.69086420259
 23
12005.48510506911
 33
5003.805785205421
 0
3DFACE
 8
3dface
 10
1349.9725755823
 20
6005.485105069109
 30
1443.246230758193
 11
-11.13835508409829
 21
6005.485105069109
 31
0.0
 12
-11.13835508409829
 22
4005.485105069108
 32
0.0
 13
1349.9725755823
 23
4005.485105069108
 33
1443.246230758193
 0
3DFACE
 8
3dface
 10
2829.696564737282
 20
4005.48510506911
 30
2764.608998546244
 11
1349.9725755823
 21
4005.485105069109
 31
1443.246230758193
 12
1349.9725755823
 22
2005.485105069109
 32
1443.246230758193
 13
2829.696564737282
 23
2005.48510506911
 33
2764.608998546244
 0
3DFACE
 8
3dface
 10
4417.158354033229
 20
4005.48510506911
 30
3954.376923690701
 11
2829.696564737282
 21
4005.485105069109
 31
2764.608998546244
 12
2829.696564737282
 22
2005.48510506911
 32
2764.608998546244
 13
4417.158354033229
 23
2005.48510506911
 33
3954.376923690701
 0
3DFACE
 8
3dface
 10
4417.158354033229
 20
6005.48510506911
 30
3954.376923690701
 11
4417.158354033229
 21
4005.48510506911
 31
3954.376923690701
 12
6100.69086420259
 22
4005.48510506911
 32
5003.805785205421
 13
6100.69086420259
 23
6005.48510506911
 33
5003.805785205421
 0
3DFACE
 8
3dface
 10
6100.69086420259
 20
8005.48510506911
 30
5003.805785205421
 11
6100.69086420259
 21
6005.48510506911
 31
5003.805785205421
 12
7867.92094246897
 22
6005.48510506911
 32
5905.182786602634
 13
7867.92094246897
 23
8005.48510506911
 33
5905.182786602634
 0
3DFACE
 8
3dface
 10
7867.92094246897
 20
10005.48510506911
 30
5905.182786602634
 11
7867.92094246897
 21
8005.48510506911
 31
5905.182786602634
 12
9705.860299258311
 22
8005.48510506911
 32
6651.883241230885
 13
9705.860299258311
 23
10005.48510506911
 33
6651.883241230885
 0
3DFACE
 8
3dface
 10
6100.69086420259
 20
10005.48510506911
 30
5003.805785205421
 11
7867.92094246897
 21
10005.48510506911
 31
5905.182786602634
 12
7867.92094246897
 22
12005.48510506911
 32
5905.182786602634
 13
6100.69086420259
 23
10005.48510506911
 33
5003.805785205421
 0
3DFACE
 8
3dface
 10
1349.9725755823
 20
4005.485105069108
 30
1443.246230758193
 11
-11.13835508409829
 21
4005.485105069108
 31
0.0
 12
-11.13835508409829
 22
2005.485105069109
 32
0.0
 13
1349.9725755823
 23
2005.485105069109
 33
1443.246230758193
 0
3DFACE
 8
3dface
 10
2829.696564737282
 20
2005.48510506911
 30
2764.608998546244
 11
1349.9725755823
 21
2005.485105069109
 31
1443.246230758193
 12
1349.9725755823
 22
5.485105069108933
 32
1443.246230758193
 13
2829.696564737282
 23
5.485105069109227
 33
2764.608998546244
 0
3DFACE
 8
3dface
 10
4417.158354033229
 20
2005.48510506911
 30
3954.376923690701
 11
2829.696564737282
 21
2005.48510506911
 31
2764.608998546244
 12
2829.696564737282
 22
5.485105069109227
 32
2764.608998546244
 13
4417.158354033229
 23
5.485105069109491
 33
3954.376923690701
 0
3DFACE
 8
3dface
 10
4417.158354033229
 20
4005.48510506911
 30
3954.376923690701
 11
4417.158354033229
 21
2005.48510506911
 31
3954.376923690701
 12
6100.69086420259
 22
2005.48510506911
 32
5003.805785205421
 13
6100.69086420259
 23
4005.48510506911
 33
5003.805785205421
 0
3DFACE
 8
3dface
 10
6100.69086420259
 20
6005.48510506911
 30
5003.805785205421
 11
6100.69086420259
 21
4005.48510506911
 31
5003.805785205421
 12
7867.92094246897
 22
4005.48510506911
 32
5905.182786602634
 13
7867.92094246897
 23
6005.48510506911
 33
5905.182786602634
 0
3DFACE
 8
3dface
 10
7867.92094246897
 20
8005.48510506911
 30
5905.182786602634
 11
7867.92094246897
 21
6005.48510506911
 31
5905.182786602634
 12
9705.860299258311
 22
6005.48510506911
 32
6651.883241230885
 13
9705.860299258311
 23
8005.48510506911
 33
6651.883241230885
 0
3DFACE
 8
3dface
 10
9705.860299258311
 20
10005.48510506911
 30
6651.883241230885
 11
9705.860299258311
 21
8005.48510506911
 31
6651.883241230885
 12
11601.00096586912
 22
8005.48510506911
 32
7238.419260529951
 13
11601.00096586912
 23
10005.48510506911
 33
7238.419260529951
 0
3DFACE
 8
3dface
 10
7867.92094246897
 20
10005.48510506911
 30
5905.182786602634
 11
9705.860299258311
 21
10005.48510506911
 31
6651.883241230885
 12
7867.92094246897
 22
12005.48510506911
 32
5905.182786602634
 13
7867.92094246897
 23
10005.48510506911
 33
5905.182786602634
 0
3DFACE
 8
3dface
 10
1349.9725755823
 20
2005.485105069109
 30
1443.246230758193
 11
-11.13835508409829
 21
2005.485105069109
 31
0.0
 12
-11.13835508409829
 22
5.485105069108612
 32
0.0
 13
1349.9725755823
 23
5.485105069108933
 33
1443.246230758193
 0
3DFACE
 8
3dface
 10
4417.158354033229
 20
2005.48510506911
 30
3954.376923690701
 11
4417.158354033229
 21
5.485105069109491
 31
3954.376923690701
 12
6100.69086420259
 22
5.485105069109724
 32
5003.805785205421
 13
6100.69086420259
 23
2005.48510506911
 33
5003.805785205421
 0
3DFACE
 8
3dface
 10
6100.69086420259
 20
4005.48510506911
 30
5003.805785205421
 11
6100.69086420259
 21
2005.48510506911
 31
5003.805785205421
 12
7867.92094246897
 22
2005.48510506911
 32
5905.182786602634
 13
7867.92094246897
 23
4005.48510506911
 33
5905.182786602634
 0
3DFACE
 8
3dface
 10
7867.92094246897
 20
6005.48510506911
 30
5905.182786602634
 11
7867.92094246897
 21
4005.48510506911
 31
5905.182786602634
 12
9705.860299258311
 22
4005.48510506911
 32
6651.883241230885
 13
9705.860299258311
 23
6005.48510506911
 33
6651.883241230885
 0
3DFACE
 8
3dface
 10
9705.860299258311
 20
8005.48510506911
 30
6651.883241230885
 11
9705.860299258311
 21
6005.48510506911
 31
6651.883241230885
 12
11601.00096586912
 22
6005.48510506911
 32
7238.419260529951
 13
11601.00096586912
 23
8005.48510506911
 33
7238.419260529951
 0
3DFACE
 8
3dface
 10
11601.00096586912
 20
10005.48510506911
 30
7238.419260529951
 11
11601.00096586912
 21
8005.48510506911
 31
7238.419260529951
 12
13539.41457153392
 22
8005.48510506911
 32
7660.480087367547
 13
13539.41457153392
 23
10005.48510506911
 33
7660.480087367547
 0
3DFACE
 8
3dface
 10
9705.860299258311
 20
10005.48510506911
 30
6651.883241230885
 11
11601.00096586912
 21
10005.48510506911
 31
7238.419260529951
 12
11601.00096586912
 22
12005.48510506911
 32
7238.419260529951
 13
9705.860299258311
 23
10005.48510506911
 33
6651.883241230885
 0
3DFACE
 8
3dface
 10
7867.92094246897
 20
12005.48510506911
 30
5905.182786602634
 11
9705.860299258311
 21
10005.48510506911
 31
6651.883241230885
 12
9705.860299258311
 22
12005.48510506911
 32
6651.883241230885
 13
7867.92094246897
 23
12005.48510506911
 33
5905.182786602634
 0
3DFACE
 8
3dface
 10
6100.69086420259
 20
2005.48510506911
 30
5003.805785205421
 11
6100.69086420259
 21
5.485105069109724
 31
5003.805785205421
 12
7867.92094246897
 22
5.485105069109924
 32
5905.182786602634
 13
7867.92094246897
 23
2005.48510506911
 33
5905.182786602634
 0
3DFACE
 8
3dface
 10
7867.92094246897
 20
4005.48510506911
 30
5905.182786602634
 11
7867.92094246897
 21
2005.48510506911
 31
5905.182786602634
 12
9705.860299258311
 22
2005.48510506911
 32
6651.883241230885
 13
9705.860299258311
 23
4005.48510506911
 33
6651.883241230885
 0
3DFACE
 8
3dface
 10
9705.860299258311
 20
6005.48510506911
 30
6651.883241230885
 11
9705.860299258311
 21
4005.48510506911
 31
6651.883241230885
 12
11601.00096586912
 22
4005.48510506911
 32
7238.419260529951
 13
11601.00096586912
 23
6005.48510506911
 33
7238.419260529951
 0
3DFACE
 8
3dface
 10
11601.00096586912
 20
8005.48510506911
 30
7238.419260529951
 11
11601.00096586912
 21
6005.48510506911
 31
7238.419260529951
 12
13539.41457153392
 22
6005.48510506911
 32
7660.480087367547
 13
13539.41457153392
 23
8005.48510506911
 33
7660.480087367547
 0
3DFACE
 8
3dface
 10
13539.41457153392
 20
10005.48510506911
 30
7660.480087367547
 11
13539.41457153392
 21
8005.48510506911
 31
7660.480087367547
 12
15506.85471023331
 22
8005.48510506911
 32
7914.963778027197
 13
15506.85471023331
 23
10005.48510506911
 33
7914.963778027197
 0
3DFACE
 8
3dface
 10
11601.00096586912
 20
10005.48510506911
 30
7238.419260529951
 11
13539.41457153392
 21
10005.48510506911
 31
7660.480087367547
 12
11601.00096586912
 22
12005.48510506911
 32
7238.419260529951
 13
11601.00096586912
 23
10005.48510506911
 33
7238.419260529951
 0
3DFACE
 8
3dface
 10
9705.860299258311
 20
10005.48510506911
 30
6651.883241230885
 11
11601.00096586912
 21
12005.48510506911
 31
7238.419260529951
 12
9705.860299258311
 22
12005.48510506911
 32
6651.883241230885
 13
9705.860299258311
 23
10005.48510506911
 33
6651.883241230885
 0
3DFACE
 8
3dface
 10
7867.92094246897
 20
2005.48510506911
 30
5905.182786602634
 11
7867.92094246897
 21
5.485105069109924
 31
5905.182786602634
 12
9705.860299258311
 22
5.485105069110089
 32
6651.883241230885
 13
9705.860299258311
 23
2005.48510506911
 33
6651.883241230885
 0
3DFACE
 8
3dface
 10
9705.860299258311
 20
4005.48510506911
 30
6651.883241230885
 11
9705.860299258311
 21
2005.48510506911
 31
6651.883241230885
 12
11601.00096586912
 22
2005.48510506911
 32
7238.419260529951
 13
11601.00096586912
 23
4005.48510506911
 33
7238.419260529951
 0
3DFACE
 8
3dface
 10
11601.00096586912
 20
6005.48510506911
 30
7238.419260529951
 11
11601.00096586912
 21
4005.48510506911
 31
7238.419260529951
 12
13539.41457153392
 22
4005.48510506911
 32
7660.480087367547
 13
13539.41457153392
 23
6005.48510506911
 33
7660.480087367547
 0
3DFACE
 8
3dface
 10
13539.41457153392
 20
8005.48510506911
 30
7660.480087367547
 11
13539.41457153392
 21
6005.48510506911
 31
7660.480087367547
 12
15506.85471023331
 22
6005.48510506911
 32
7914.963778027197
 13
15506.85471023331
 23
8005.48510506911
 33
7914.963778027197
 0
3DFACE
 8
3dface
 10
15506.85471023331
 20
10005.48510506911
 30
7914.963778027197
 11
15506.85471023331
 21
8005.48510506911
 31
7914.963778027197
 12
17488.8616449159
 22
8005.48510506911
 32
7999.999999999966
 13
17488.8616449159
 23
10005.48510506911
 33
7999.999999999966
 0
3DFACE
 8
3dface
 10
13539.41457153392
 20
10005.48510506911
 30
7660.480087367547
 11
15506.85471023331
 21
10005.48510506911
 31
7914.963778027197
 12
15506.85471023331
 22
12005.48510506911
 32
7914.963778027197
 13
13539.41457153392
 23
10005.48510506911
 33
7660.480087367547
 0
3DFACE
 8
3dface
 10
11601.00096586912
 20
12005.48510506911
 30
7238.419260529951
 11
13539.41457153392
 21
10005.48510506911
 31
7660.480087367547
 12
13539.41457153392
 22
12005.48510506911
 32
7660.480087367547
 13
11601.00096586912
 23
12005.48510506911
 33
7238.419260529951
 0
3DFACE
 8
3dface
 10
9705.860299258311
 20
2005.48510506911
 30
6651.883241230885
 11
9705.860299258311
 21
5.485105069110089
 31
6651.883241230885
 12
11601.00096586912
 22
5.48510506911022
 32
7238.419260529951
 13
11601.00096586912
 23
2005.48510506911
 33
7238.419260529951
 0
3DFACE
 8
3dface
 10
11601.00096586912
 20
4005.48510506911
 30
7238.419260529951
 11
11601.00096586912
 21
2005.48510506911
 31
7238.419260529951
 12
13539.41457153392
 22
2005.48510506911
 32
7660.480087367547
 13
13539.41457153392
 23
4005.48510506911
 33
7660.480087367547
 0
3DFACE
 8
3dface
 10
13539.41457153392
 20
6005.48510506911
 30
7660.480087367547
 11
13539.41457153392
 21
4005.48510506911
 31
7660.480087367547
 12
15506.85471023331
 22
4005.48510506911
 32
7914.963778027197
 13
15506.85471023331
 23
6005.48510506911
 33
7914.963778027197
 0
3DFACE
 8
3dface
 10
15506.85471023331
 20
8005.48510506911
 30
7914.963778027197
 11
15506.85471023331
 21
6005.48510506911
 31
7914.963778027197
 12
17488.8616449159
 22
6005.48510506911
 32
7999.999999999966
 13
17488.8616449159
 23
8005.48510506911
 33
7999.999999999966
 0
3DFACE
 8
3dface
 10
17488.8616449159
 20
10005.48510506911
 30
7999.999999999966
 11
17488.8616449159
 21
8005.48510506911
 31
7999.999999999966
 12
19470.86857959848
 22
8005.48510506911
 32
7914.963778027193
 13
19470.86857959848
 23
10005.48510506911
 33
7914.963778027193
 0
3DFACE
 8
3dface
 10
15506.85471023331
 20
10005.48510506911
 30
7914.963778027197
 11
17488.8616449159
 21
10005.48510506911
 31
7999.999999999966
 12
15506.85471023331
 22
12005.48510506911
 32
7914.963778027197
 13
15506.85471023331
 23
10005.48510506911
 33
7914.963778027197
 0
3DFACE
 8
3dface
 10
13539.41457153392
 20
10005.48510506911
 30
7660.480087367547
 11
15506.85471023331
 21
12005.48510506911
 31
7914.963778027197
 12
13539.41457153392
 22
12005.48510506911
 32
7660.480087367547
 13
13539.41457153392
 23
10005.48510506911
 33
7660.480087367547
 0
3DFACE
 8
3dface
 10
11601.00096586912
 20
2005.48510506911
 30
7238.419260529951
 11
11601.00096586912
 21
5.48510506911022
 31
7238.419260529951
 12
13539.41457153392
 22
5.485105069110313
 32
7660.480087367547
 13
13539.41457153392
 23
2005.48510506911
 33
7660.480087367547
 0
3DFACE
 8
3dface
 10
13539.41457153392
 20
4005.48510506911
 30
7660.480087367547
 11
13539.41457153392
 21
2005.48510506911
 31
7660.480087367547
 12
15506.85471023331
 22
2005.48510506911
 32
7914.963778027197
 13
15506.85471023331
 23
4005.48510506911
 33
7914.963778027197
 0
3DFACE
 8
3dface
 10
15506.85471023331
 20
6005.48510506911
 30
7914.963778027197
 11
15506.85471023331
 21
4005.48510506911
 31
7914.963778027197
 12
17488.8616449159
 22
4005.48510506911
 32
7999.999999999966
 13
17488.8616449159
 23
6005.48510506911
 33
7999.999999999966
 0
3DFACE
 8
3dface
 10
17488.8616449159
 20
8005.48510506911
 30
7999.999999999966
 11
17488.8616449159
 21
6005.48510506911
 31
7999.999999999966
 12
19470.86857959848
 22
6005.48510506911
 32
7914.963778027193
 13
19470.86857959848
 23
8005.48510506911
 33
7914.963778027193
 0
3DFACE
 8
3dface
 10
19470.86857959848
 20
10005.48510506911
 30
7914.963778027193
 11
19470.86857959848
 21
8005.48510506911
 31
7914.963778027193
 12
21438.30871829788
 22
8005.48510506911
 32
7660.480087367536
 13
21438.30871829788
 23
10005.48510506911
 33
7660.480087367536
 0
3DFACE
 8
3dface
 10
17488.8616449159
 20
10005.48510506911
 30
7999.999999999966
 11
19470.86857959848
 21
10005.48510506911
 31
7914.963778027193
 12
19470.86857959848
 22
12005.48510506911
 32
7914.963778027193
 13
17488.8616449159
 23
10005.48510506911
 33
7999.999999999966
 0
3DFACE
 8
3dface
 10
15506.85471023331
 20
12005.48510506911
 30
7914.963778027197
 11
17488.8616449159
 21
10005.48510506911
 31
7999.999999999966
 12
17488.8616449159
 22
12005.48510506911
 32
7999.999999999966
 13
15506.85471023331
 23
12005.48510506911
 33
7914.963778027197
 0
3DFACE
 8
3dface
 10
13539.41457153392
 20
2005.48510506911
 30
7660.480087367547
 11
13539.41457153392
 21
5.485105069110313
 31
7660.480087367547
 12
15506.85471023331
 22
5.48510506911037
 32
7914.963778027197
 13
15506.85471023331
 23
2005.48510506911
 33
7914.963778027197
 0
3DFACE
 8
3dface
 10
15506.85471023331
 20
4005.48510506911
 30
7914.963778027197
 11
15506.85471023331
 21
2005.48510506911
 31
7914.963778027197
 12
17488.8616449159
 22
2005.48510506911
 32
7999.999999999966
 13
17488.8616449159
 23
4005.48510506911
 33
7999.999999999966
 0
3DFACE
 8
3dface
 10
17488.8616449159
 20
6005.48510506911
 30
7999.999999999966
 11
17488.8616449159
 21
4005.48510506911
 31
7999.999999999966
 12
19470.86857959848
 22
4005.48510506911
 32
7914.963778027193
 13
19470.86857959848
 23
6005.48510506911
 33
7914.963778027193
 0
3DFACE
 8
3dface
 10
19470.86857959848
 20
8005.48510506911
 30
7914.963778027193
 11
19470.86857959848
 21
6005.48510506911
 31
7914.963778027193
 12
21438.30871829788
 22
6005.48510506911
 32
7660.480087367536
 13
21438.30871829788
 23
8005.48510506911
 33
7660.480087367536
 0
3DFACE
 8
3dface
 10
21438.30871829788
 20
10005.48510506911
 30
7660.480087367536
 11
21438.30871829788
 21
8005.48510506911
 31
7660.480087367536
 12
23376.72232396268
 22
8005.48510506911
 32
7238.419260529937
 13
23376.72232396268
 23
10005.48510506911
 33
7238.419260529937
 0
3DFACE
 8
3dface
 10
19470.86857959848
 20
10005.48510506911
 30
7914.963778027193
 11
21438.30871829788
 21
10005.48510506911
 31
7660.480087367536
 12
19470.86857959848
 22
12005.48510506911
 32
7914.963778027193
 13
19470.86857959848
 23
10005.48510506911
 33
7914.963778027193
 0
3DFACE
 8
3dface
 10
17488.8616449159
 20
10005.48510506911
 30
7999.999999999966
 11
19470.86857959848
 21
12005.48510506911
 31
7914.963778027193
 12
17488.8616449159
 22
12005.48510506911
 32
7999.999999999966
 13
17488.8616449159
 23
10005.48510506911
 33
7999.999999999966
 0
3DFACE
 8
3dface
 10
15506.85471023331
 20
2005.48510506911
 30
7914.963778027197
 11
15506.85471023331
 21
5.48510506911037
 31
7914.963778027197
 12
17488.8616449159
 22
5.485105069110389
 32
7999.999999999966
 13
17488.8616449159
 23
2005.48510506911
 33
7999.999999999966
 0
3DFACE
 8
3dface
 10
17488.8616449159
 20
4005.48510506911
 30
7999.999999999966
 11
17488.8616449159
 21
2005.48510506911
 31
7999.999999999966
 12
19470.86857959848
 22
2005.48510506911
 32
7914.963778027193
 13
19470.86857959848
 23
4005.48510506911
 33
7914.963778027193
 0
3DFACE
 8
3dface
 10
19470.86857959848
 20
6005.48510506911
 30
7914.963778027193
 11
19470.86857959848
 21
4005.48510506911
 31
7914.963778027193
 12
21438.30871829788
 22
4005.48510506911
 32
7660.480087367536
 13
21438.30871829788
 23
6005.48510506911
 33
7660.480087367536
 0
3DFACE
 8
3dface
 10
21438.30871829788
 20
8005.48510506911
 30
7660.480087367536
 11
21438.30871829788
 21
6005.48510506911
 31
7660.480087367536
 12
23376.72232396268
 22
6005.48510506911
 32
7238.419260529937
 13
23376.72232396268
 23
8005.48510506911
 33
7238.419260529937
 0
3DFACE
 8
3dface
 10
23376.72232396268
 20
10005.48510506911
 30
7238.419260529937
 11
23376.72232396268
 21
8005.48510506911
 31
7238.419260529937
 12
25271.86299057349
 22
8005.48510506911
 32
6651.883241230868
 13
25271.86299057349
 23
10005.48510506911
 33
6651.883241230868
 0
3DFACE
 8
3dface
 10
21438.30871829788
 20
10005.48510506911
 30
7660.480087367536
 11
23376.72232396268
 21
10005.48510506911
 31
7238.419260529937
 12
23376.72232396268
 22
12005.48510506911
 32
7238.419260529937
 13
21438.30871829788
 23
10005.48510506911
 33
7660.480087367536
 0
3DFACE
 8
3dface
 10
19470.86857959848
 20
12005.48510506911
 30
7914.963778027193
 11
21438.30871829788
 21
10005.48510506911
 31
7660.480087367536
 12
21438.30871829788
 22
12005.48510506911
 32
7660.480087367536
 13
19470.86857959848
 23
12005.48510506911
 33
7914.963778027193
 0
3DFACE
 8
3dface
 10
17488.8616449159
 20
2005.48510506911
 30
7999.999999999966
 11
17488.8616449159
 21
5.485105069110389
 31
7999.999999999966
 12
19470.86857959848
 22
5.48510506911037
 32
7914.963778027193
 13
19470.86857959848
 23
2005.48510506911
 33
7914.963778027193
 0
3DFACE
 8
3dface
 10
19470.86857959848
 20
4005.48510506911
 30
7914.963778027193
 11
19470.86857959848
 21
2005.48510506911
 31
7914.963778027193
 12
21438.30871829788
 22
2005.48510506911
 32
7660.480087367536
 13
21438.30871829788
 23
4005.48510506911
 33
7660.480087367536
 0
3DFACE
 8
3dface
 10
21438.30871829788
 20
6005.48510506911
 30
7660.480087367536
 11
21438.30871829788
 21
4005.48510506911
 31
7660.480087367536
 12
23376.72232396268
 22
4005.48510506911
 32
7238.419260529937
 13
23376.72232396268
 23
6005.48510506911
 33
7238.419260529937
 0
3DFACE
 8
3dface
 10
23376.72232396268
 20
8005.48510506911
 30
7238.419260529937
 11
23376.72232396268
 21
6005.48510506911
 31
7238.419260529937
 12
25271.86299057349
 22
6005.48510506911
 32
6651.883241230868
 13
25271.86299057349
 23
8005.48510506911
 33
6651.883241230868
 0
3DFACE
 8
3dface
 10
25271.86299057349
 20
10005.48510506911
 30
6651.883241230868
 11
25271.86299057349
 21
8005.48510506911
 31
6651.883241230868
 12
27109.80234736283
 22
8005.48510506911
 32
5905.182786602612
 13
27109.80234736283
 23
10005.48510506911
 33
5905.182786602612
 0
3DFACE
 8
3dface
 10
23376.72232396268
 20
10005.48510506911
 30
7238.419260529937
 11
25271.86299057349
 21
10005.48510506911
 31
6651.883241230868
 12
23376.72232396268
 22
12005.48510506911
 32
7238.419260529937
 13
23376.72232396268
 23
10005.48510506911
 33
7238.419260529937
 0
3DFACE
 8
3dface
 10
21438.30871829788
 20
10005.48510506911
 30
7660.480087367536
 11
23376.72232396268
 21
12005.48510506911
 31
7238.419260529937
 12
21438.30871829788
 22
12005.48510506911
 32
7660.480087367536
 13
21438.30871829788
 23
10005.48510506911
 33
7660.480087367536
 0
3DFACE
 8
3dface
 10
19470.86857959848
 20
2005.48510506911
 30
7914.963778027193
 11
19470.86857959848
 21
5.48510506911037
 31
7914.963778027193
 12
21438.30871829788
 22
5.485105069110313
 32
7660.480087367536
 13
21438.30871829788
 23
2005.48510506911
 33
7660.480087367536
 0
3DFACE
 8
3dface
 10
21438.30871829788
 20
4005.48510506911
 30
7660.480087367536
 11
21438.30871829788
 21
2005.48510506911
 31
7660.480087367536
 12
23376.72232396268
 22
2005.48510506911
 32
7238.419260529937
 13
23376.72232396268
 23
4005.48510506911
 33
7238.419260529937
 0
3DFACE
 8
3dface
 10
23376.72232396268
 20
6005.48510506911
 30
7238.419260529937
 11
23376.72232396268
 21
4005.48510506911
 31
7238.419260529937
 12
25271.86299057349
 22
4005.48510506911
 32
6651.883241230868
 13
25271.86299057349
 23
6005.48510506911
 33
6651.883241230868
 0
3DFACE
 8
3dface
 10
25271.86299057349
 20
8005.48510506911
 30
6651.883241230868
 11
25271.86299057349
 21
6005.48510506911
 31
6651.883241230868
 12
27109.80234736283
 22
6005.48510506911
 32
5905.182786602612
 13
27109.80234736283
 23
8005.48510506911
 33
5905.182786602612
 0
3DFACE
 8
3dface
 10
27109.80234736283
 20
10005.48510506911
 30
5905.182786602612
 11
27109.80234736283
 21
8005.48510506911
 31
5905.182786602612
 12
28877.03242562921
 22
8005.48510506911
 32
5003.805785205392
 13
28877.03242562921
 23
10005.48510506911
 33
5003.805785205392
 0
3DFACE
 8
3dface
 10
25271.86299057349
 20
10005.48510506911
 30
6651.883241230868
 11
27109.80234736283
 21
10005.48510506911
 31
5905.182786602612
 12
27109.80234736283
 22
12005.48510506911
 32
5905.182786602612
 13
25271.86299057349
 23
10005.48510506911
 33
6651.883241230868
 0
3DFACE
 8
3dface
 10
23376.72232396268
 20
12005.48510506911
 30
7238.419260529937
 11
25271.86299057349
 21
10005.48510506911
 31
6651.883241230868
 12
25271.86299057349
 22
12005.48510506911
 32
6651.883241230868
 13
23376.72232396268
 23
12005.48510506911
 33
7238.419260529937
 0
3DFACE
 8
3dface
 10
21438.30871829788
 20
2005.48510506911
 30
7660.480087367536
 11
21438.30871829788
 21
5.485105069110313
 31
7660.480087367536
 12
23376.72232396268
 22
5.48510506911022
 32
7238.419260529937
 13
23376.72232396268
 23
2005.48510506911
 33
7238.419260529937
 0
3DFACE
 8
3dface
 10
23376.72232396268
 20
4005.48510506911
 30
7238.419260529937
 11
23376.72232396268
 21
2005.48510506911
 31
7238.419260529937
 12
25271.86299057349
 22
2005.48510506911
 32
6651.883241230868
 13
25271.86299057349
 23
4005.48510506911
 33
6651.883241230868
 0
3DFACE
 8
3dface
 10
25271.86299057349
 20
6005.48510506911
 30
6651.883241230868
 11
25271.86299057349
 21
4005.48510506911
 31
6651.883241230868
 12
27109.80234736283
 22
4005.48510506911
 32
5905.182786602612
 13
27109.80234736283
 23
6005.48510506911
 33
5905.182786602612
 0
3DFACE
 8
3dface
 10
27109.80234736283
 20
8005.48510506911
 30
5905.182786602612
 11
27109.80234736283
 21
6005.48510506911
 31
5905.182786602612
 12
28877.03242562921
 22
6005.48510506911
 32
5003.805785205392
 13
28877.03242562921
 23
8005.48510506911
 33
5003.805785205392
 0
3DFACE
 8
3dface
 10
28877.03242562921
 20
10005.48510506911
 30
5003.805785205392
 11
28877.03242562921
 21
8005.48510506911
 31
5003.805785205392
 12
30560.56493579857
 22
8005.48510506911
 32
3954.376923690665
 13
30560.56493579857
 23
10005.48510506911
 33
3954.376923690665
 0
3DFACE
 8
3dface
 10
27109.80234736283
 20
10005.48510506911
 30
5905.182786602612
 11
28877.03242562921
 21
10005.48510506911
 31
5003.805785205392
 12
27109.80234736283
 22
12005.48510506911
 32
5905.182786602612
 13
27109.80234736283
 23
10005.48510506911
 33
5905.182786602612
 0
3DFACE
 8
3dface
 10
25271.86299057349
 20
10005.48510506911
 30
6651.883241230868
 11
27109.80234736283
 21
12005.48510506911
 31
5905.182786602612
 12
25271.86299057349
 22
12005.48510506911
 32
6651.883241230868
 13
25271.86299057349
 23
10005.48510506911
 33
6651.883241230868
 0
3DFACE
 8
3dface
 10
23376.72232396268
 20
2005.48510506911
 30
7238.419260529937
 11
23376.72232396268
 21
5.48510506911022
 31
7238.419260529937
 12
25271.86299057349
 22
5.485105069110089
 32
6651.883241230868
 13
25271.86299057349
 23
2005.48510506911
 33
6651.883241230868
 0
3DFACE
 8
3dface
 10
25271.86299057349
 20
4005.48510506911
 30
6651.883241230868
 11
25271.86299057349
 21
2005.48510506911
 31
6651.883241230868
 12
27109.80234736283
 22
2005.48510506911
 32
5905.182786602612
 13
27109.80234736283
 23
4005.48510506911
 33
5905.182786602612
 0
3DFACE
 8
3dface
 10
27109.80234736283
 20
6005.48510506911
 30
5905.182786602612
 11
27109.80234736283
 21
4005.48510506911
 31
5905.182786602612
 12
28877.03242562921
 22
4005.48510506911
 32
5003.805785205392
 13
28877.03242562921
 23
6005.48510506911
 33
5003.805785205392
 0
3DFACE
 8
3dface
 10
28877.03242562921
 20
8005.48510506911
 30
5003.805785205392
 11
28877.03242562921
 21
6005.48510506911
 31
5003.805785205392
 12
30560.56493579857
 22
6005.48510506911
 32
3954.376923690665
 13
30560.56493579857
 23
8005.48510506911
 33
3954.376923690665
 0
3DFACE
 8
3dface
 10
30560.56493579857
 20
10005.48510506911
 30
3954.376923690665
 11
30560.56493579857
 21
8005.48510506911
 31
3954.376923690665
 12
32148.02672509452
 22
8005.48510506911
 32
2764.608998546201
 13
32148.02672509452
 23
10005.48510506911
 33
2764.608998546201
 0
3DFACE
 8
3dface
 10
28877.03242562921
 20
10005.48510506911
 30
5003.805785205392
 11
30560.56493579857
 21
10005.48510506911
 31
3954.376923690665
 12
30560.56493579857
 22
12005.48510506911
 32
3954.376923690665
 13
28877.03242562921
 23
10005.48510506911
 33
5003.805785205392
 0
3DFACE
 8
3dface
 10
27109.80234736283
 20
12005.48510506911
 30
5905.182786602612
 11
28877.03242562921
 21
10005.48510506911
 31
5003.805785205392
 12
28877.03242562921
 22
12005.48510506911
 32
5003.805785205392
 13
27109.80234736283
 23
12005.48510506911
 33
5905.182786602612
 0
3DFACE
 8
3dface
 10
25271.86299057349
 20
2005.48510506911
 30
6651.883241230868
 11
25271.86299057349
 21
5.485105069110089
 31
6651.883241230868
 12
27109.80234736283
 22
5.485105069109924
 32
5905.182786602612
 13
27109.80234736283
 23
2005.48510506911
 33
5905.182786602612
 0
3DFACE
 8
3dface
 10
27109.80234736283
 20
4005.48510506911
 30
5905.182786602612
 11
27109.80234736283
 21
2005.48510506911
 31
5905.182786602612
 12
28877.03242562921
 22
2005.48510506911
 32
5003.805785205392
 13
28877.03242562921
 23
4005.48510506911
 33
5003.805785205392
 0
3DFACE
 8
3dface
 10
28877.03242562921
 20
6005.48510506911
 30
5003.805785205392
 11
28877.03242562921
 21
4005.48510506911
 31
5003.805785205392
 12
30560.56493579857
 22
4005.48510506911
 32
3954.376923690665
 13
30560.56493579857
 23
6005.48510506911
 33
3954.376923690665
 0
3DFACE
 8
3dface
 10
30560.56493579857
 20
8005.48510506911
 30
3954.376923690665
 11
30560.56493579857
 21
6005.48510506911
 31
3954.376923690665
 12
32148.02672509452
 22
6005.48510506911
 32
2764.608998546201
 13
32148.02672509452
 23
8005.48510506911
 33
2764.608998546201
 0
3DFACE
 8
3dface
 10
32148.02672509452
 20
10005.48510506911
 30
2764.608998546201
 11
32148.02672509452
 21
8005.48510506911
 31
2764.608998546201
 12
33627.7507142495
 22
8005.485105069109
 32
1443.246230758143
 13
33627.7507142495
 23
10005.48510506911
 33
1443.246230758143
 0
3DFACE
 8
3dface
 10
30560.56493579857
 20
10005.48510506911
 30
3954.376923690665
 11
32148.02672509452
 21
10005.48510506911
 31
2764.608998546201
 12
30560.56493579857
 22
12005.48510506911
 32
3954.376923690665
 13
30560.56493579857
 23
10005.48510506911
 33
3954.376923690665
 0
3DFACE
 8
3dface
 10
28877.03242562921
 20
10005.48510506911
 30
5003.805785205392
 11
30560.56493579857
 21
12005.48510506911
 31
3954.376923690665
 12
28877.03242562921
 22
12005.48510506911
 32
5003.805785205392
 13
28877.03242562921
 23
10005.48510506911
 33
5003.805785205392
 0
3DFACE
 8
3dface
 10
27109.80234736283
 20
2005.48510506911
 30
5905.182786602612
 11
27109.80234736283
 21
5.485105069109924
 31
5905.182786602612
 12
28877.03242562921
 22
5.485105069109724
 32
5003.805785205392
 13
28877.03242562921
 23
2005.48510506911
 33
5003.805785205392
 0
3DFACE
 8
3dface
 10
28877.03242562921
 20
4005.48510506911
 30
5003.805785205392
 11
28877.03242562921
 21
2005.48510506911
 31
5003.805785205392
 12
30560.56493579857
 22
2005.48510506911
 32
3954.376923690665
 13
30560.56493579857
 23
4005.48510506911
 33
3954.376923690665
 0
3DFACE
 8
3dface
 10
30560.56493579857
 20
6005.48510506911
 30
3954.376923690665
 11
30560.56493579857
 21
4005.48510506911
 31
3954.376923690665
 12
32148.02672509452
 22
4005.48510506911
 32
2764.608998546201
 13
32148.02672509452
 23
6005.48510506911
 33
2764.608998546201
 0
3DFACE
 8
3dface
 10
32148.02672509452
 20
8005.48510506911
 30
2764.608998546201
 11
32148.02672509452
 21
6005.48510506911
 31
2764.608998546201
 12
33627.7507142495
 22
6005.485105069109
 32
1443.246230758143
 13
33627.7507142495
 23
8005.485105069109
 33
1443.246230758143
 0
3DFACE
 8
3dface
 10
33627.7507142495
 20
10005.48510506911
 30
1443.246230758143
 11
33627.7507142495
 21
8005.485105069109
 31
1443.246230758143
 12
34988.86164491589
 22
8005.485105069109
 32
-0.0000000000509317
 13
34988.86164491589
 23
10005.48510506911
 33
-0.0000000000509317
 0
3DFACE
 8
3dface
 10
32148.02672509452
 20
10005.48510506911
 30
2764.608998546201
 11
33627.7507142495
 21
10005.48510506911
 31
1443.246230758143
 12
33627.7507142495
 22
12005.48510506911
 32
1443.246230758143
 13
32148.02672509452
 23
10005.48510506911
 33
2764.608998546201
 0
3DFACE
 8
3dface
 10
30560.56493579857
 20
12005.48510506911
 30
3954.376923690665
 11
32148.02672509452
 21
10005.48510506911
 31
2764.608998546201
 12
32148.02672509452
 22
12005.48510506911
 32
2764.608998546201
 13
30560.56493579857
 23
12005.48510506911
 33
3954.376923690665
 0
3DFACE
 8
3dface
 10
28877.03242562921
 20
2005.48510506911
 30
5003.805785205392
 11
28877.03242562921
 21
5.485105069109724
 31
5003.805785205392
 12
30560.56493579857
 22
5.485105069109491
 32
3954.376923690665
 13
30560.56493579857
 23
2005.48510506911
 33
3954.376923690665
 0
3DFACE
 8
3dface
 10
30560.56493579857
 20
4005.48510506911
 30
3954.376923690665
 11
30560.56493579857
 21
2005.48510506911
 31
3954.376923690665
 12
32148.02672509452
 22
2005.48510506911
 32
2764.608998546201
 13
32148.02672509452
 23
4005.48510506911
 33
2764.608998546201
 0
3DFACE
 8
3dface
 10
32148.02672509452
 20
6005.48510506911
 30
2764.608998546201
 11
32148.02672509452
 21
4005.48510506911
 31
2764.608998546201
 12
33627.7507142495
 22
4005.485105069108
 32
1443.246230758143
 13
33627.7507142495
 23
6005.485105069109
 33
1443.246230758143
 0
3DFACE
 8
3dface
 10
33627.7507142495
 20
8005.485105069109
 30
1443.246230758143
 11
33627.7507142495
 21
6005.485105069109
 31
1443.246230758143
 12
34988.86164491589
 22
6005.485105069109
 32
-0.0000000000509317
 13
34988.86164491589
 23
8005.485105069109
 33
-0.0000000000509317
 0
3DFACE
 8
3dface
 10
33627.7507142495
 20
10005.48510506911
 30
1443.246230758143
 11
34988.86164491589
 21
10005.48510506911
 31
-0.0000000000509317
 12
33627.7507142495
 22
12005.48510506911
 32
1443.246230758143
 13
33627.7507142495
 23
10005.48510506911
 33
1443.246230758143
 0
3DFACE
 8
3dface
 10
32148.02672509452
 20
10005.48510506911
 30
2764.608998546201
 11
33627.7507142495
 21
12005.48510506911
 31
1443.246230758143
 12
32148.02672509452
 22
12005.48510506911
 32
2764.608998546201
 13
32148.02672509452
 23
10005.48510506911
 33
2764.608998546201
 0
3DFACE
 8
3dface
 10
30560.56493579857
 20
2005.48510506911
 30
3954.376923690665
 11
30560.56493579857
 21
5.485105069109491
 31
3954.376923690665
 12
32148.02672509452
 22
5.485105069109227
 32
2764.608998546201
 13
32148.02672509452
 23
2005.48510506911
 33
2764.608998546201
 0
3DFACE
 8
3dface
 10
32148.02672509452
 20
4005.48510506911
 30
2764.608998546201
 11
32148.02672509452
 21
2005.48510506911
 31
2764.608998546201
 12
33627.7507142495
 22
2005.485105069109
 32
1443.246230758143
 13
33627.7507142495
 23
4005.485105069108
 33
1443.246230758143
 0
3DFACE
 8
3dface
 10
33627.7507142495
 20
6005.485105069109
 30
1443.246230758143
 11
33627.7507142495
 21
4005.485105069108
 31
1443.246230758143
 12
34988.86164491589
 22
4005.485105069108
 32
-0.0000000000509317
 13
34988.86164491589
 23
6005.485105069109
 33
-0.0000000000509317
 0
3DFACE
 8
3dface
 10
33627.7507142495
 20
12005.48510506911
 30
1443.246230758143
 11
34988.86164491589
 21
10005.48510506911
 31
-0.0000000000509317
 12
34988.86164491589
 22
12005.48510506911
 32
-0.0000000000509317
 13
33627.7507142495
 23
12005.48510506911
 33
1443.246230758143
 0
3DFACE
 8
3dface
 10
32148.02672509452
 20
2005.48510506911
 30
2764.608998546201
 11
32148.02672509452
 21
5.485105069109227
 31
2764.608998546201
 12
33627.7507142495
 22
5.485105069108933
 32
1443.246230758143
 13
33627.7507142495
 23
2005.485105069109
 33
1443.246230758143
 0
3DFACE
 8
3dface
 10
33627.7507142495
 20
4005.485105069108
 30
1443.246230758143
 11
33627.7507142495
 21
2005.485105069109
 31
1443.246230758143
 12
34988.86164491589
 22
2005.485105069109
 32
-0.0000000000509317
 13
34988.86164491589
 23
4005.485105069108
 33
-0.0000000000509317
 0
3DFACE
 8
3dface
 10
33627.7507142495
 20
2005.485105069109
 30
1443.246230758143
 11
33627.7507142495
 21
5.485105069108933
 31
1443.246230758143
 12
34988.86164491589
 22
5.485105069108612
 32
-0.0000000000509317
 13
34988.86164491589
 23
2005.485105069109
 33
-0.0000000000509317
 0
ENDSEC
 0
EOF
